<?xml version="1.0" encoding="utf-8"?>
<!-- Generator: Adobe Illustrator 19.1.0, SVG Export Plug-In . SVG Version: 6.00 Build 0)  -->
<svg version="1.1" id="Layer_1" xmlns="http://www.w3.org/2000/svg" xmlns:xlink="http://www.w3.org/1999/xlink" x="0px" y="0px"
	 viewBox="0 0 576 348" style="enable-background:new 0 0 576 348;" xml:space="preserve">
<style type="text/css">
	.st0{fill:#5CAF87;}
	.st1{fill:#69C396;}
	.st2{fill:#FFFFFF;}
</style>
<path class="st0" d="M551.4,273.6c12.4-19.3,18.9-40.9,18.9-62.7c0-36.6-17.7-70.9-49.9-96.6C488.8,88.9,446.7,74.9,402,74.9
	c-44.7,0-86.7,14-118.5,39.3c-32.2,25.7-49.9,60-49.9,96.6c0,36.6,17.7,70.9,49.9,96.6c31.7,25.3,73.8,39.3,118.5,39.3
	c38.8,0,76.5-10.8,106.4-30.6l66.7,2.8L551.4,273.6z"/>
<path class="st1" d="M174.6,1.3C79.3,1.3,1.8,78.8,1.8,174c0,31.5,8.5,62.2,24.7,89.1L4.9,319.9l62.8-10.1
	c30.3,23.9,68.1,37,106.9,37c95.3,0,172.8-77.5,172.8-172.8S269.9,1.3,174.6,1.3z"/>
<g>
	<path class="st2" d="M152.4,230.2c-0.3-16.2,2.7-31.2,8.8-45.1c8.3-18,19.2-23.3,28.3-32.1c8-8,13.6-13.3,15.9-23.3
		c1.8-6.5,1.8-10.6,0.6-17.4c-1.2-7.1-3.8-13.6-7.7-18.6c-8.5-10.9-21.2-13-26.2-13.3c-0.9,0-20.3-1.2-33,15
		c-7.1,9.1-8.8,19.7-9.4,25.1l-30.4-2.9c1.2-14.7,7.1-28.9,16.5-40.1c9.4-10.6,21.8-18.3,36.2-22.1c10.9-2.7,19.5-2.4,22.1-2.1
		c4.7,0.3,12.1,1.2,20.3,4.1c10.6,3.8,19.7,10,27.1,18.6c7.4,8.5,12.4,19.5,14.7,31.2c1.8,10.6,1.5,18.9-1.5,29.2
		c-4.7,18-15.6,27.4-25.1,36c-8,6.8-15.3,13.6-20.6,25.3c-4.4,9.7-6.5,20.9-6.2,32.4H152.4z M168,282.3c-9.1,0-16.5-7.4-16.5-16.8
		c0-9.1,7.4-16.5,16.5-16.5c9.4,0,16.8,7.4,16.8,16.5C184.8,275,177.5,282.3,168,282.3z"/>
</g>
</svg>
