<?xml version="1.0" encoding="utf-8"?>
<!-- Generator: Adobe Illustrator 19.1.0, SVG Export Plug-In . SVG Version: 6.00 Build 0)  -->
<svg version="1.1" id="Layer_1" xmlns="http://www.w3.org/2000/svg" xmlns:xlink="http://www.w3.org/1999/xlink" x="0px" y="0px"
	 viewBox="0 0 212.2 236.5" style="enable-background:new 0 0 212.2 236.5;" xml:space="preserve">
<style type="text/css">
	.st0{fill:none;stroke:#939BA5;stroke-width:14;stroke-miterlimit:10;}
	.st1{fill:#939BA5;stroke:#939BA5;stroke-width:10;stroke-miterlimit:10;}
	.st2{fill:#939BA5;stroke:#939BA5;stroke-width:20;stroke-miterlimit:10;}
</style>
<path class="st0" d="M165,47.8L52.4,107.3c1.8,3.3,2.8,7.2,2.8,11.2c0,4.1-1,7.9-2.8,11.2L165,189.3"/>
<path class="st1" d="M183.2,5.5c-13.3,0-24,10.7-24,24c0,4.1,1,7.9,2.8,11.2c4,7.6,12,12.8,21.2,12.8c13.3,0,24-10.7,24-24
	S196.5,5.5,183.2,5.5z"/>
<path class="st1" d="M183.2,183.5c-9.2,0-17.2,5.2-21.2,12.8c-1.8,3.4-2.8,7.2-2.8,11.2c0,13.3,10.7,24,24,24s24-10.7,24-24
	S196.5,183.5,183.2,183.5z"/>
<g>
	<circle class="st2" cx="33.2" cy="118.4" r="22.4"/>
</g>
</svg>
